<svg xmlns="http://www.w3.org/2000/svg" xmlns:xlink="http://www.w3.org/1999/xlink" xmlns:lucid="lucid" width="1760" height="1360"><g transform="translate(0 0)" lucid:page-tab-id="0_0"><path d="M0 0h1760v1360H0z" fill="#fff"/><path d="M611.6 83c0-4.42 3.6-8 8-8h520.8c4.4 0 8 3.58 8 8v26.15c0 4.4-3.6 8-8 8H619.6c-4.4 0-8-3.6-8-8z" stroke="#000" stroke-opacity="0" stroke-width="2" fill="#fff" fill-opacity="0"/><use xlink:href="#a" transform="matrix(1,0,0,1,611.6089147274068,74.99999999999999) translate(192.5241975308642 24.98777777777778)"/><path d="M708.55 100.56l369.75-57.5" stroke="#b2b2b2" stroke-width="2" fill="none"/><path d="M708.7 101.55l-1.15.18V99.7l.85-.12z" fill="#b2b2b2"/><path d="M1078.3 43.07l63.58 72.7M1141.88 115.77l1.97 2.26M618.12 115.77l90.43-15.2M618.12 115.77l-2.96.5" stroke="#b2b2b2" stroke-width="2" fill="none"/><path fill="#b2b2b2"/><path d="M589.5 125.15c0-4.42 3.6-8 8-8h565c4.4 0 8 3.58 8 8v15.25c0 4.4-3.6 8-8 8h-565c-4.4 0-8-3.6-8-8z" stroke="#000" stroke-opacity="0" stroke-width="2" fill="#fff" fill-opacity="0"/><use xlink:href="#b" transform="matrix(1,0,0,1,589.5143151923994,117.14666666666668) translate(162.77172839506176 16.24703703703704)"/><use xlink:href="#c" transform="matrix(1,0,0,1,589.5143151923994,117.14666666666668) translate(227.05866255144036 16.24703703703704)"/><use xlink:href="#d" transform="matrix(1,0,0,1,589.5143151923994,117.14666666666668) translate(296.1044444444445 16.24703703703704)"/><use xlink:href="#e" transform="matrix(1,0,0,1,589.5143151923994,117.14666666666668) translate(308.5539300411523 16.24703703703704)"/><use xlink:href="#f" transform="matrix(1,0,0,1,589.5143151923994,117.14666666666668) translate(373.86061728395066 16.24703703703704)"/><use xlink:href="#g" transform="matrix(1,0,0,1,589.5143151923994,117.14666666666668) translate(390.85650205761317 16.24703703703704)"/><path d="M1240 600.4c0-2.77 2.24-5 5-5h346.6c2.76 0 5 2.23 5 5v94c0 2.75-2.24 5-5 5H1245c-2.76 0-5-2.25-5-5z" fill="#fff"/><path d="M1240 600.4c0-2.77 2.24-5 5-5h346.6c2.76 0 5 2.23 5 5v94c0 2.75-2.24 5-5 5H1245c-2.76 0-5-2.25-5-5zM1240 635.4h356.6M1284 635.4v64M1396.9 635.4v64" stroke="#000" stroke-width="2" fill="none"/><use xlink:href="#h" transform="matrix(1,0,0,1,1250,595.3866796877982) translate(88.6 23.6)"/><use xlink:href="#i" transform="matrix(1,0,0,1,1245,637.8866796877982) translate(5 17.1)"/><use xlink:href="#j" transform="matrix(1,0,0,1,1289,637.8866796877982) translate(0 17.1)"/><use xlink:href="#k" transform="matrix(1,0,0,1,1401.9,637.8866796877982) translate(0 17.1)"/><use xlink:href="#l" transform="matrix(1,0,0,1,1289,669.8866796877982) translate(0 17.1)"/><use xlink:href="#m" transform="matrix(1,0,0,1,1401.9,669.8866796877982) translate(0 17.1)"/><use xlink:href="#n" transform="matrix(1,0,0,1,1401.9,669.8866796877982) translate(79.9 17.1)"/><path d="M840.84 122.15c0-2.76 2.24-5 5-5h297.55c2.75 0 5 2.24 5 5v94c0 2.76-2.25 5-5 5H845.83c-2.76 0-5-2.24-5-5z" fill="#fff"/><path d="M840.84 122.15c0-2.76 2.24-5 5-5h297.55c2.75 0 5 2.24 5 5v94c0 2.76-2.25 5-5 5H845.83c-2.76 0-5-2.24-5-5zM840.84 157.15h307.55M884.84 157.15v64M958.7 157.15v64" stroke="#000" stroke-width="2" fill="none"/><use xlink:href="#o" transform="matrix(1,0,0,1,850.8410852726083,117.14666666660924) translate(83.625 23.6)"/><use xlink:href="#i" transform="matrix(1,0,0,1,845.8410852726083,159.64666666660924) translate(5 17.1)"/><use xlink:href="#p" transform="matrix(1,0,0,1,889.8410852726083,159.64666666660924) translate(0 17.1)"/><use xlink:href="#k" transform="matrix(1,0,0,1,963.6910852726083,159.64666666660924) translate(0 17.1)"/><use xlink:href="#l" transform="matrix(1,0,0,1,889.8410852726083,191.64666666660924) translate(0 17.1)"/><use xlink:href="#m" transform="matrix(1,0,0,1,963.6910852726083,191.64666666660924) translate(0 17.1)"/><use xlink:href="#q" transform="matrix(1,0,0,1,963.6910852726083,191.64666666660924) translate(79.9 17.1)"/><path d="M1240 122.15c0-2.76 2.24-5 5-5h316.65c2.76 0 5 2.24 5 5v94c0 2.76-2.24 5-5 5H1245c-2.76 0-5-2.24-5-5z" fill="#fff"/><path d="M1240 122.15c0-2.76 2.24-5 5-5h316.65c2.76 0 5 2.24 5 5v94c0 2.76-2.24 5-5 5H1245c-2.76 0-5-2.24-5-5zM1240 157.15h326.65M1284 157.15v64M1366.95 157.15v64" stroke="#000" stroke-width="2" fill="none"/><use xlink:href="#r" transform="matrix(1,0,0,1,1250,117.14666666660924) translate(88.57499999999999 23.6)"/><use xlink:href="#i" transform="matrix(1,0,0,1,1245,159.64666666660924) translate(5 17.1)"/><use xlink:href="#s" transform="matrix(1,0,0,1,1289,159.64666666660924) translate(0 17.1)"/><use xlink:href="#k" transform="matrix(1,0,0,1,1371.95,159.64666666660924) translate(0 17.1)"/><use xlink:href="#l" transform="matrix(1,0,0,1,1289,191.64666666660924) translate(0 17.1)"/><use xlink:href="#m" transform="matrix(1,0,0,1,1371.95,191.64666666660924) translate(0 17.1)"/><use xlink:href="#n" transform="matrix(1,0,0,1,1371.95,191.64666666660924) translate(79.9 17.1)"/><path d="M785.02 305c0-2.76 2.24-5 5-5h312.6c2.77 0 5 2.24 5 5v126c0 2.76-2.23 5-5 5h-312.6c-2.76 0-5-2.24-5-5z" fill="#fff"/><path d="M785.02 305c0-2.76 2.24-5 5-5h312.6c2.77 0 5 2.24 5 5v126c0 2.76-2.23 5-5 5h-312.6c-2.76 0-5-2.24-5-5zM785.02 340h322.6M829.02 340v96M907.92 340v96" stroke="#000" stroke-width="2" fill="none"/><use xlink:href="#t" transform="matrix(1,0,0,1,795.025,300) translate(88.6 23.6)"/><use xlink:href="#i" transform="matrix(1,0,0,1,790.025,342.5) translate(5 17.1)"/><use xlink:href="#u" transform="matrix(1,0,0,1,834.025,342.5) translate(0 17.1)"/><use xlink:href="#k" transform="matrix(1,0,0,1,912.925,342.5) translate(0 17.1)"/><use xlink:href="#l" transform="matrix(1,0,0,1,834.025,374.5) translate(0 17.1)"/><use xlink:href="#m" transform="matrix(1,0,0,1,912.925,374.5) translate(0 17.1)"/><use xlink:href="#n" transform="matrix(1,0,0,1,912.925,374.5) translate(79.9 17.1)"/><use xlink:href="#v" transform="matrix(1,0,0,1,790.025,406.5) translate(5.524999999999999 17.1)"/><use xlink:href="#p" transform="matrix(1,0,0,1,834.025,406.5) translate(0 17.1)"/><use xlink:href="#k" transform="matrix(1,0,0,1,912.925,406.5) translate(0 17.1)"/><path d="M839.84 173.17h-95.82v247.15h40" stroke="#000" stroke-width="2" fill="none"/><path fill="#fff"/><path d="M820.84 183.17h-2v-20h2zM784.02 411.22l-18.2 9.1 18.2 9.1-.9 1.8-21.78-10.9 21.8-10.9z"/><path d="M400 85.77c0-2.76 2.24-5 5-5h297.55c2.76 0 5 2.24 5 5v94c0 2.76-2.24 5-5 5H405c-2.76 0-5-2.24-5-5z" fill="#fff"/><path d="M400 85.77c0-2.76 2.24-5 5-5h297.55c2.76 0 5 2.24 5 5v94c0 2.76-2.24 5-5 5H405c-2.76 0-5-2.24-5-5zM400 120.77h307.55M444 120.77v64M517.85 120.77v64" stroke="#000" stroke-width="2" fill="none"/><use xlink:href="#w" transform="matrix(1,0,0,1,410,80.77166666660924) translate(83.625 23.6)"/><use xlink:href="#i" transform="matrix(1,0,0,1,405,123.27166666660924) translate(5 17.1)"/><use xlink:href="#x" transform="matrix(1,0,0,1,449,123.27166666660924) translate(0 17.1)"/><use xlink:href="#k" transform="matrix(1,0,0,1,522.85,123.27166666660924) translate(0 17.1)"/><use xlink:href="#l" transform="matrix(1,0,0,1,449,155.27166666660924) translate(0 17.1)"/><use xlink:href="#m" transform="matrix(1,0,0,1,522.85,155.27166666660924) translate(0 17.1)"/><use xlink:href="#q" transform="matrix(1,0,0,1,522.85,155.27166666660924) translate(79.9 17.1)"/><path d="M420 226.15c0-2.76 2.24-5 5-5h222.65c2.76 0 5 2.24 5 5v126c0 2.76-2.24 5-5 5H425c-2.76 0-5-2.24-5-5z" fill="#fff"/><path d="M420 226.15c0-2.76 2.24-5 5-5h222.65c2.76 0 5 2.24 5 5v126c0 2.76-2.24 5-5 5H425c-2.76 0-5-2.24-5-5zM420 261.15h232.65M464 261.15v96M577.75 261.15v96" stroke="#000" stroke-width="2" fill="none"/><use xlink:href="#y" transform="matrix(1,0,0,1,430,221.14666666660924) translate(26.17500000000001 23.6)"/><use xlink:href="#i" transform="matrix(1,0,0,1,425,263.64666666660924) translate(5 17.1)"/><use xlink:href="#z" transform="matrix(1,0,0,1,469,263.64666666660924) translate(0 17.1)"/><use xlink:href="#k" transform="matrix(1,0,0,1,582.75,263.64666666660924) translate(0 17.1)"/><use xlink:href="#v" transform="matrix(1,0,0,1,425,295.64666666660924) translate(5.524999999999999 17.1)"/><use xlink:href="#x" transform="matrix(1,0,0,1,469,295.64666666660924) translate(0 17.1)"/><use xlink:href="#k" transform="matrix(1,0,0,1,582.75,295.64666666660924) translate(0 17.1)"/><use xlink:href="#v" transform="matrix(1,0,0,1,425,327.64666666660924) translate(5.524999999999999 17.1)"/><use xlink:href="#p" transform="matrix(1,0,0,1,469,327.64666666660924) translate(0 17.1)"/><use xlink:href="#k" transform="matrix(1,0,0,1,582.75,327.64666666660924) translate(0 17.1)"/><path d="M399 136.8h-40v172.52h60" stroke="#000" stroke-width="2" fill="none"/><path fill="#fff"/><path d="M380 146.8h-2v-20h2zM419 300.2l-18.2 9.12 18.2 9.1-.9 1.8-21.78-10.9 21.8-10.9z"/><path d="M839.84 173.17h-93.1V337.4c-.84-.55-1.7-.8-2.72-.8-2.76 0-5 2.23-5 5h-85.37" stroke="#000" stroke-width="2" fill="none"/><path fill="#fff"/><path d="M820.84 183.17h-2v-20h2zM676.33 341.6l-21.8 10.9-.88-1.8 18.2-9.1-18.2-9.1.9-1.8z"/><path d="M1240 265c0-2.76 2.24-5 5-5h368.5c2.76 0 5 2.24 5 5v190c0 2.76-2.24 5-5 5H1245c-2.76 0-5-2.24-5-5z" fill="#fff"/><path d="M1240 265c0-2.76 2.24-5 5-5h368.5c2.76 0 5 2.24 5 5v190c0 2.76-2.24 5-5 5H1245c-2.76 0-5-2.24-5-5zM1240 300h378.5M1311.95 300v160M1418.8 300v160" stroke="#000" stroke-width="2" fill="none"/><use xlink:href="#A" transform="matrix(1,0,0,1,1250,260) translate(117.125 23.6)"/><use xlink:href="#i" transform="matrix(1,0,0,1,1245,302.5) translate(19 17.1)"/><use xlink:href="#B" transform="matrix(1,0,0,1,1316.95,302.5) translate(0 17.1)"/><use xlink:href="#k" transform="matrix(1,0,0,1,1423.8,302.5) translate(0 17.1)"/><use xlink:href="#v" transform="matrix(1,0,0,1,1245,334.5) translate(19.525 17.1)"/><use xlink:href="#j" transform="matrix(1,0,0,1,1316.95,334.5) translate(0 17.1)"/><use xlink:href="#k" transform="matrix(1,0,0,1,1423.8,334.5) translate(0 17.1)"/><use xlink:href="#v" transform="matrix(1,0,0,1,1245,366.5) translate(19.525 17.1)"/><use xlink:href="#s" transform="matrix(1,0,0,1,1316.95,366.5) translate(0 17.1)"/><use xlink:href="#k" transform="matrix(1,0,0,1,1423.8,366.5) translate(0 17.1)"/><use xlink:href="#C" transform="matrix(1,0,0,1,1316.95,398.5) translate(0 17.1)"/><use xlink:href="#m" transform="matrix(1,0,0,1,1423.8,398.5) translate(0 17.1)"/><use xlink:href="#n" transform="matrix(1,0,0,1,1423.8,398.5) translate(79.9 17.1)"/><use xlink:href="#D" transform="matrix(1,0,0,1,1245,430.5) translate(5.024999999999999 17.1)"/><use xlink:href="#u" transform="matrix(1,0,0,1,1316.95,430.5) translate(0 17.1)"/><use xlink:href="#k" transform="matrix(1,0,0,1,1423.8,430.5) translate(0 17.1)"/><path d="M1597.6 651.4h40V527.7H1199V347.93h40" stroke="#000" stroke-width="2" fill="none"/><path fill="#fff"/><path d="M1618.6 661.4h-2v-20h2zM1239 338.83l-18.2 9.1 18.2 9.1-.9 1.8-21.78-10.9 21.8-10.9z"/><path d="M1239 173.17h-40V380.1h40" stroke="#000" stroke-width="2" fill="none"/><path fill="#fff"/><path d="M1220 183.17h-2v-20h2zM1239 371l-18.2 9.1 18.2 9.1-.9 1.8-21.78-10.9 21.8-10.9z"/><path d="M1108.63 355.93h65.18v88.5h20.2c0-2.75 2.24-5 5-5s5 2.25 5 5h35" stroke="#000" stroke-width="2" fill="none"/><path fill="#fff"/><path d="M1129.63 365.93h-2v-20h2zM1239 435.34l-18.2 9.1 18.2 9.1-.9 1.8-21.78-10.9 21.8-10.9z"/><path d="M640 502.04c0-2.76 2.24-5 5-5h419.45c2.76 0 5 2.24 5 5v158c0 2.77-2.24 5-5 5H645c-2.76 0-5-2.23-5-5z" fill="#fff"/><path d="M640 502.04c0-2.76 2.24-5 5-5h419.45c2.76 0 5 2.24 5 5v158c0 2.77-2.24 5-5 5H645c-2.76 0-5-2.23-5-5zM640 537.04h429.45M684 537.04v128M821.8 537.04v128" stroke="#000" stroke-width="2" fill="none"/><use xlink:href="#E" transform="matrix(1,0,0,1,650,497.0437508457568) translate(122.625 23.6)"/><use xlink:href="#i" transform="matrix(1,0,0,1,645,539.5437508457568) translate(5 17.1)"/><use xlink:href="#F" transform="matrix(1,0,0,1,689,539.5437508457568) translate(0 17.1)"/><use xlink:href="#k" transform="matrix(1,0,0,1,826.8000000000001,539.5437508457568) translate(0 17.1)"/><use xlink:href="#G" transform="matrix(1,0,0,1,689,571.5437508457568) translate(0 17.1)"/><use xlink:href="#H" transform="matrix(1,0,0,1,826.8000000000001,571.5437508457568) translate(0 17.1)"/><use xlink:href="#I" transform="matrix(1,0,0,1,826.8000000000001,571.5437508457568) translate(87.85 17.1)"/><use xlink:href="#J" transform="matrix(1,0,0,1,826.8000000000001,571.5437508457568) translate(149.75 17.1)"/><use xlink:href="#K" transform="matrix(1,0,0,1,826.8000000000001,571.5437508457568) translate(188.65 17.1)"/><use xlink:href="#L" transform="matrix(1,0,0,1,689,603.5437508457568) translate(0 17.1)"/><use xlink:href="#m" transform="matrix(1,0,0,1,826.8000000000001,603.5437508457568) translate(0 17.1)"/><use xlink:href="#M" transform="matrix(1,0,0,1,826.8000000000001,603.5437508457568) translate(79.9 17.1)"/><use xlink:href="#v" transform="matrix(1,0,0,1,645,635.5437508457568) translate(5.524999999999999 17.1)"/><use xlink:href="#B" transform="matrix(1,0,0,1,689,635.5437508457568) translate(0 17.1)"/><use xlink:href="#k" transform="matrix(1,0,0,1,826.8000000000001,635.5437508457568) translate(0 17.1)"/><path d="M1239 315.77h-35c0-2.76-2.24-5-5-5s-5 2.24-5 5h-39.28v35.16c2.77 0 5 2.23 5 5 0 2.76-2.23 5-5 5v288.43h-84.27" stroke="#000" stroke-width="2" fill="none"/><path fill="#fff"/><path d="M1220 325.77h-2v-20h2zM1093.13 649.36l-21.8 10.9-.88-1.8 18.2-9.1-18.2-9.1.9-1.8z"/><path d="M1303.4 745c0-2.76 2.24-5 5-5H1675c2.76 0 5 2.24 5 5v126c0 2.76-2.24 5-5 5h-366.6c-2.76 0-5-2.24-5-5z" fill="#fff"/><path d="M1303.4 745c0-2.76 2.24-5 5-5H1675c2.76 0 5 2.24 5 5v126c0 2.76-2.24 5-5 5h-366.6c-2.76 0-5-2.24-5-5zM1303.4 780H1680M1347.4 780v96M1480.3 780v96" stroke="#000" stroke-width="2" fill="none"/><g><use xlink:href="#N" transform="matrix(1,0,0,1,1313.4000000000233,740) translate(88.6 23.6)"/></g><g><use xlink:href="#i" transform="matrix(1,0,0,1,1308.4000000000233,782.5) translate(5 17.1)"/></g><g><use xlink:href="#O" transform="matrix(1,0,0,1,1352.4000000000233,782.5) translate(0 17.1)"/></g><g><use xlink:href="#k" transform="matrix(1,0,0,1,1485.3000000000234,782.5) translate(0 17.1)"/></g><g><use xlink:href="#P" transform="matrix(1,0,0,1,1352.4000000000233,814.5) translate(0 17.1)"/></g><g><use xlink:href="#m" transform="matrix(1,0,0,1,1485.3000000000234,814.5) translate(0 17.1)"/><use xlink:href="#Q" transform="matrix(1,0,0,1,1485.3000000000234,814.5) translate(79.9 17.1)"/></g><g><use xlink:href="#v" transform="matrix(1,0,0,1,1308.4000000000233,846.5) translate(5.524999999999999 17.1)"/></g><g><use xlink:href="#B" transform="matrix(1,0,0,1,1352.4000000000233,846.5) translate(0 17.1)"/></g><g><use xlink:href="#k" transform="matrix(1,0,0,1,1485.3000000000234,846.5) translate(0 17.1)"/></g><path d="M1619.5 315.77H1721v544.5h-40" stroke="#000" stroke-width="2" fill="none"/><path fill="#fff"/><path d="M1640.5 325.77h-2v-20h2zM1703.68 860.28l-21.8 10.9-.88-1.8 18.2-9.1-18.2-9.1.9-1.8z"/><defs><path fill="#b2b2b2" d="M25-224v-37h50v37H25zM75 22c2 45-34 59-81 51V38c22 5 31-5 31-27v-201h50V22" id="R"/><path fill="#b2b2b2" d="M110-194c64 0 96 36 96 99 0 64-35 99-97 99-61 0-95-36-95-99 0-62 34-99 96-99zm-1 164c35 0 45-28 45-65 0-40-10-65-43-65-34 0-45 26-45 65 0 36 10 65 43 65" id="S"/><path fill="#b2b2b2" d="M135-194c52 0 70 43 70 98 0 56-19 99-73 100-30 1-46-15-58-35L72 0H24l1-261h50v104c11-23 29-37 60-37zM114-30c31 0 40-27 40-66 0-37-7-63-39-63s-41 28-41 65c0 36 8 64 40 64" id="T"/><path fill="#b2b2b2" d="M165-50V0h-47v-50H5v-38l105-160h55v161h33v37h-33zm-47-37l2-116L46-87h72" id="U"/><path fill="#b2b2b2" d="M-4 44V30h207v14H-4" id="V"/><path fill="#b2b2b2" d="M137-138c1-29-70-34-71-4 15 46 118 7 119 86 1 83-164 76-172 9l43-7c4 19 20 25 44 25 33 8 57-30 24-41C81-84 22-81 20-136c-2-80 154-74 161-7" id="W"/><path fill="#b2b2b2" d="M114-157C55-157 80-60 75 0H25v-261h50l-1 109c12-26 28-41 61-42 86-1 58 113 63 194h-50c-7-57 23-157-34-157" id="X"/><path fill="#b2b2b2" d="M185-48c-13 30-37 53-82 52C43 2 14-33 14-96s30-98 90-98c62 0 83 45 84 108H66c0 31 8 55 39 56 18 0 30-7 34-22zm-45-69c5-46-57-63-70-21-2 6-4 13-4 21h74" id="Y"/><path fill="#b2b2b2" d="M220-157c-53 9-28 100-34 157h-49v-107c1-27-5-49-29-50C55-147 81-57 75 0H25l-1-190h47c2 12-1 28 3 38 10-53 101-56 108 0 13-22 24-43 59-42 82 1 51 116 57 194h-49v-107c-1-25-5-48-29-50" id="Z"/><path fill="#b2b2b2" d="M133-34C117-15 103 5 69 4 32 3 11-16 11-54c-1-60 55-63 116-61 1-26-3-47-28-47-18 1-26 9-28 27l-52-2c7-38 36-58 82-57s74 22 75 68l1 82c-1 14 12 18 25 15v27c-30 8-71 5-69-32zm-48 3c29 0 43-24 42-57-32 0-66-3-65 30 0 17 8 27 23 27" id="aa"/><g id="a"><use transform="matrix(0.0728395061728395,0,0,0.0728395061728395,0,0)" xlink:href="#R"/><use transform="matrix(0.0728395061728395,0,0,0.0728395061728395,7.28395061728395,0)" xlink:href="#S"/><use transform="matrix(0.0728395061728395,0,0,0.0728395061728395,23.235802469135802,0)" xlink:href="#T"/><use transform="matrix(0.0728395061728395,0,0,0.0728395061728395,39.187654320987654,0)" xlink:href="#U"/><use transform="matrix(0.0728395061728395,0,0,0.0728395061728395,53.75555555555555,0)" xlink:href="#R"/><use transform="matrix(0.0728395061728395,0,0,0.0728395061728395,61.0395061728395,0)" xlink:href="#V"/><use transform="matrix(0.0728395061728395,0,0,0.0728395061728395,75.60740740740741,0)" xlink:href="#W"/><use transform="matrix(0.0728395061728395,0,0,0.0728395061728395,90.1753086419753,0)" xlink:href="#X"/><use transform="matrix(0.0728395061728395,0,0,0.0728395061728395,106.12716049382716,0)" xlink:href="#Y"/><use transform="matrix(0.0728395061728395,0,0,0.0728395061728395,120.69506172839506,0)" xlink:href="#Z"/><use transform="matrix(0.0728395061728395,0,0,0.0728395061728395,144.0037037037037,0)" xlink:href="#aa"/></g><path fill="#b2b2b2" d="M160-131c35 5 61 23 61 61C221 17 115-2 30 0v-248c76 3 177-17 177 60 0 33-19 50-47 57zm-97-11c50-1 110 9 110-42 0-47-63-36-110-37v79zm0 115c55-2 124 14 124-45 0-56-70-42-124-44v89" id="ab"/><path fill="#b2b2b2" d="M56-190L54-37l88-153h34V0h-30l2-153L59 0H25v-190h31" id="ac"/><path fill="#b2b2b2" d="M6-190h153v23H98V0H67v-167H6v-23" id="ad"/><path fill="#b2b2b2" d="M141-36C126-15 110 5 73 4 37 3 15-17 15-53c-1-64 63-63 125-63 3-35-9-54-41-54-24 1-41 7-42 31l-33-3c5-37 33-52 76-52 45 0 72 20 72 64v82c-1 20 7 32 28 27v20c-31 9-61-2-59-35zM48-53c0 20 12 33 32 33 41-3 63-29 60-74-43 2-92-5-92 41" id="ae"/><path fill="#b2b2b2" d="M153 0v-167H87C74-108 81-27 38 0 29 5 12 6 2 1v-22c51 4 39-64 49-112 5-25 4-25 8-57h126V0h-32" id="af"/><path fill="#b2b2b2" d="M165-267c8 67-110 75-125 20-2-7-4-13-4-20h29c1 23 13 35 36 35s34-13 36-35h28zM56-190L54-37l88-153h34V0h-30l2-153L59 0H25v-190h31" id="ag"/><g id="b"><use transform="matrix(0.04248971193415638,0,0,0.04248971193415638,0,0)" xlink:href="#ab"/><use transform="matrix(0.04248971193415638,0,0,0.04248971193415638,10.19753086419753,0)" xlink:href="#ac"/><use transform="matrix(0.04248971193415638,0,0,0.04248971193415638,18.73796296296296,0)" xlink:href="#ad"/><use transform="matrix(0.04248971193415638,0,0,0.04248971193415638,25.536316872427978,0)" xlink:href="#ae"/><use transform="matrix(0.04248971193415638,0,0,0.04248971193415638,34.03425925925925,0)" xlink:href="#af"/><use transform="matrix(0.04248971193415638,0,0,0.04248971193415638,42.95709876543209,0)" xlink:href="#ac"/><use transform="matrix(0.04248971193415638,0,0,0.04248971193415638,51.49753086419753,0)" xlink:href="#ag"/></g><path fill="#b2b2b2" d="M63-143c77-2 155-4 155 70C218 13 117 1 30 0v-248h162v28H63v77zm0 116c54-1 121 11 121-45 0-53-67-44-121-44v89" id="ah"/><path fill="#b2b2b2" d="M115-194c55 1 70 41 70 98S169 2 115 4C84 4 66-9 55-30l1 105H24l-1-265h31l2 30c10-21 28-34 59-34zm-8 174c40 0 45-34 45-75s-6-73-45-74c-42 0-51 32-51 76 0 43 10 73 51 73" id="ai"/><path fill="#b2b2b2" d="M57-190v80h85v-80h32V0h-32v-87H57V0H25v-190h32" id="aj"/><path fill="#b2b2b2" d="M100-194c62-1 85 37 85 99 1 63-27 99-86 99S16-35 15-95c0-66 28-99 85-99zM99-20c44 1 53-31 53-75 0-43-8-75-51-75s-53 32-53 75 10 74 51 75" id="ak"/><path fill="#b2b2b2" d="M176-55C176 11 93 0 25 0v-190c61 3 142-15 144 47 1 29-21 35-39 44 27 3 46 16 46 44zm-34 0c0-41-47-30-85-32v64c38-1 85 8 85-32zm-6-83c0-36-44-26-79-28v56c34-2 79 8 79-28" id="al"/><g id="c"><use transform="matrix(0.04248971193415638,0,0,0.04248971193415638,0,0)" xlink:href="#ah"/><use transform="matrix(0.04248971193415638,0,0,0.04248971193415638,10.027572016460905,0)" xlink:href="#ae"/><use transform="matrix(0.04248971193415638,0,0,0.04248971193415638,18.525514403292178,0)" xlink:href="#ai"/><use transform="matrix(0.04248971193415638,0,0,0.04248971193415638,27.023456790123454,0)" xlink:href="#ae"/><use transform="matrix(0.04248971193415638,0,0,0.04248971193415638,35.52139917695473,0)" xlink:href="#aj"/><use transform="matrix(0.04248971193415638,0,0,0.04248971193415638,43.934362139917695,0)" xlink:href="#ak"/><use transform="matrix(0.04248971193415638,0,0,0.04248971193415638,52.43230452674897,0)" xlink:href="#al"/></g><path fill="#b2b2b2" d="M32 76v-337h29V76H32" id="am"/><use transform="matrix(0.04248971193415638,0,0,0.04248971193415638,0,0)" xlink:href="#am" id="d"/><path fill="#b2b2b2" d="M63-220v92h138v28H63V0H30v-248h175v28H63" id="an"/><path fill="#b2b2b2" d="M100-194c63 0 86 42 84 106H49c0 40 14 67 53 68 26 1 43-12 49-29l28 8c-11 28-37 45-77 45C44 4 14-33 15-96c1-61 26-98 85-98zm52 81c6-60-76-77-97-28-3 7-6 17-6 28h103" id="ao"/><path fill="#b2b2b2" d="M115-194c53 0 69 39 70 98 0 66-23 100-70 100C84 3 66-7 56-30L54 0H23l1-261h32v101c10-23 28-34 59-34zm-8 174c40 0 45-34 45-75 0-40-5-75-45-74-42 0-51 32-51 76 0 43 10 73 51 73" id="ap"/><path fill="#b2b2b2" d="M114-163C36-179 61-72 57 0H25l-1-190h30c1 12-1 29 2 39 6-27 23-49 58-41v29" id="aq"/><path fill="#b2b2b2" d="M84 4C-5 8 30-112 23-190h32v120c0 31 7 50 39 49 72-2 45-101 50-169h31l1 190h-30c-1-10 1-25-2-33-11 22-28 36-60 37" id="ar"/><path fill="#b2b2b2" d="M141-36C126-15 110 5 73 4 37 3 15-17 15-53c-1-64 63-63 125-63 3-35-9-54-41-54-24 1-41 7-42 31l-33-3c5-37 33-52 76-52 45 0 72 20 72 64v82c-1 20 7 32 28 27v20c-31 9-61-2-59-35zM48-53c0 20 12 33 32 33 41-3 63-29 60-74-43 2-92-5-92 41" id="as"/><path fill="#b2b2b2" d="M179-190L93 31C79 59 56 82 12 73V49c39 6 53-20 64-50L1-190h34L92-34l54-156h33" id="at"/><g id="e"><use transform="matrix(0.04248971193415638,0,0,0.04248971193415638,0,0)" xlink:href="#an"/><use transform="matrix(0.04248971193415638,0,0,0.04248971193415638,9.305246913580246,0)" xlink:href="#ao"/><use transform="matrix(0.04248971193415638,0,0,0.04248971193415638,17.80318930041152,0)" xlink:href="#ap"/><use transform="matrix(0.04248971193415638,0,0,0.04248971193415638,26.301131687242794,0)" xlink:href="#aq"/><use transform="matrix(0.04248971193415638,0,0,0.04248971193415638,31.357407407407408,0)" xlink:href="#ar"/><use transform="matrix(0.04248971193415638,0,0,0.04248971193415638,39.85534979423868,0)" xlink:href="#as"/><use transform="matrix(0.04248971193415638,0,0,0.04248971193415638,48.35329218106995,0)" xlink:href="#aq"/><use transform="matrix(0.04248971193415638,0,0,0.04248971193415638,53.40956790123455,0)" xlink:href="#at"/></g><path fill="#b2b2b2" d="M134-131c28 9 52 24 51 62-1 50-34 73-85 73S17-19 16-69c0-36 21-54 49-61-75-25-45-126 34-121 46 3 78 18 79 63 0 33-17 51-44 57zm-34-11c31 1 46-15 46-44 0-28-17-43-47-42-29 0-46 13-45 42 1 28 16 44 46 44zm1 122c35 0 51-18 51-52 0-30-18-46-53-46-33 0-51 17-51 47 0 34 19 51 53 51" id="au"/><path fill="#b2b2b2" d="M68-38c1 34 0 65-14 84H32c9-13 17-26 17-46H33v-38h35" id="av"/><g id="f"><use transform="matrix(0.04248971193415638,0,0,0.04248971193415638,0,0)" xlink:href="#au"/><use transform="matrix(0.04248971193415638,0,0,0.04248971193415638,8.497942386831275,0)" xlink:href="#av"/></g><path fill="#b2b2b2" d="M101-251c82-7 93 87 43 132L82-64C71-53 59-42 53-27h129V0H18c2-99 128-94 128-182 0-28-16-43-45-43s-46 15-49 41l-32-3c6-41 34-60 81-64" id="aw"/><path fill="#b2b2b2" d="M101-251c68 0 85 55 85 127S166 4 100 4C33 4 14-52 14-124c0-73 17-127 87-127zm-1 229c47 0 54-49 54-102s-4-102-53-102c-51 0-55 48-55 102 0 53 5 102 54 102" id="ax"/><path fill="#b2b2b2" d="M27 0v-27h64v-190l-56 39v-29l58-41h29v221h61V0H27" id="ay"/><path fill="#b2b2b2" d="M99-251c64 0 84 50 84 122C183-37 130 33 47-8c-14-7-20-23-25-40l30-5c6 39 69 39 84 7 9-19 16-44 16-74-10 22-31 35-62 35-49 0-73-33-73-83 0-54 28-83 82-83zm-1 141c31-1 51-18 51-49 0-36-14-67-51-67-34 0-49 23-49 58 0 34 15 58 49 58" id="az"/><g id="g"><use transform="matrix(0.04248971193415638,0,0,0.04248971193415638,0,0)" xlink:href="#aw"/><use transform="matrix(0.04248971193415638,0,0,0.04248971193415638,8.497942386831275,0)" xlink:href="#ax"/><use transform="matrix(0.04248971193415638,0,0,0.04248971193415638,16.99588477366255,0)" xlink:href="#ay"/><use transform="matrix(0.04248971193415638,0,0,0.04248971193415638,25.493827160493822,0)" xlink:href="#az"/></g><path d="M141-36C126-15 110 5 73 4 37 3 15-17 15-53c-1-64 63-63 125-63 3-35-9-54-41-54-24 1-41 7-42 31l-33-3c5-37 33-52 76-52 45 0 72 20 72 64v82c-1 20 7 32 28 27v20c-31 9-61-2-59-35zM48-53c0 20 12 33 32 33 41-3 63-29 60-74-43 2-92-5-92 41" id="aA"/><path d="M115-194c55 1 70 41 70 98S169 2 115 4C84 4 66-9 55-30l1 105H24l-1-265h31l2 30c10-21 28-34 59-34zm-8 174c40 0 45-34 45-75s-6-73-45-74c-42 0-51 32-51 76 0 43 10 73 51 73" id="aB"/><path d="M24 0v-261h32V0H24" id="aC"/><path d="M24-231v-30h32v30H24zM24 0v-190h32V0H24" id="aD"/><path d="M96-169c-40 0-48 33-48 73s9 75 48 75c24 0 41-14 43-38l32 2c-6 37-31 61-74 61-59 0-76-41-82-99-10-93 101-131 147-64 4 7 5 14 7 22l-32 3c-4-21-16-35-41-35" id="aE"/><path d="M59-47c-2 24 18 29 38 22v24C64 9 27 4 27-40v-127H5v-23h24l9-43h21v43h35v23H59v120" id="aF"/><path d="M100-194c62-1 85 37 85 99 1 63-27 99-86 99S16-35 15-95c0-66 28-99 85-99zM99-20c44 1 53-31 53-75 0-43-8-75-51-75s-53 32-53 75 10 74 51 75" id="aG"/><path d="M117-194c89-4 53 116 60 194h-32v-121c0-31-8-49-39-48C34-167 62-67 57 0H25l-1-190h30c1 10-1 24 2 32 11-22 29-35 61-36" id="aH"/><path d="M33 0v-38h34V0H33" id="aI"/><path d="M100-194c63 0 86 42 84 106H49c0 40 14 67 53 68 26 1 43-12 49-29l28 8c-11 28-37 45-77 45C44 4 14-33 15-96c1-61 26-98 85-98zm52 81c6-60-76-77-97-28-3 7-6 17-6 28h103" id="aJ"/><path d="M177-190C167-65 218 103 67 71c-23-6-38-20-44-43l32-5c15 47 100 32 89-28v-30C133-14 115 1 83 1 29 1 15-40 15-95c0-56 16-97 71-98 29-1 48 16 59 35 1-10 0-23 2-32h30zM94-22c36 0 50-32 50-73 0-42-14-75-50-75-39 0-46 34-46 75s6 73 46 73" id="aK"/><path d="M114-163C36-179 61-72 57 0H25l-1-190h30c1 12-1 29 2 39 6-27 23-49 58-41v29" id="aL"/><path d="M179-190L93 31C79 59 56 82 12 73V49c39 6 53-20 64-50L1-190h34L92-34l54-156h33" id="aM"/><g id="h"><use transform="matrix(0.05,0,0,0.05,0,0)" xlink:href="#aA"/><use transform="matrix(0.05,0,0,0.05,10,0)" xlink:href="#aB"/><use transform="matrix(0.05,0,0,0.05,20,0)" xlink:href="#aB"/><use transform="matrix(0.05,0,0,0.05,30,0)" xlink:href="#aC"/><use transform="matrix(0.05,0,0,0.05,33.95,0)" xlink:href="#aD"/><use transform="matrix(0.05,0,0,0.05,37.900000000000006,0)" xlink:href="#aE"/><use transform="matrix(0.05,0,0,0.05,46.900000000000006,0)" xlink:href="#aA"/><use transform="matrix(0.05,0,0,0.05,56.900000000000006,0)" xlink:href="#aF"/><use transform="matrix(0.05,0,0,0.05,61.900000000000006,0)" xlink:href="#aD"/><use transform="matrix(0.05,0,0,0.05,65.85000000000001,0)" xlink:href="#aG"/><use transform="matrix(0.05,0,0,0.05,75.85000000000001,0)" xlink:href="#aH"/><use transform="matrix(0.05,0,0,0.05,85.85000000000001,0)" xlink:href="#aI"/><use transform="matrix(0.05,0,0,0.05,90.85000000000001,0)" xlink:href="#aE"/><use transform="matrix(0.05,0,0,0.05,99.85000000000001,0)" xlink:href="#aA"/><use transform="matrix(0.05,0,0,0.05,109.85000000000001,0)" xlink:href="#aF"/><use transform="matrix(0.05,0,0,0.05,114.85000000000001,0)" xlink:href="#aJ"/><use transform="matrix(0.05,0,0,0.05,124.85000000000001,0)" xlink:href="#aK"/><use transform="matrix(0.05,0,0,0.05,134.85000000000002,0)" xlink:href="#aG"/><use transform="matrix(0.05,0,0,0.05,144.85000000000002,0)" xlink:href="#aL"/><use transform="matrix(0.05,0,0,0.05,150.8,0)" xlink:href="#aM"/></g><path d="M30-248c87 1 191-15 191 75 0 78-77 80-158 76V0H30v-248zm33 125c57 0 124 11 124-50 0-59-68-47-124-48v98" id="aN"/><path d="M194 0L95-120 63-95V0H30v-248h33v124l119-124h40L117-140 236 0h-42" id="aO"/><g id="i"><use transform="matrix(0.05,0,0,0.05,0,0)" xlink:href="#aN"/><use transform="matrix(0.05,0,0,0.05,12,0)" xlink:href="#aO"/></g><path d="M-5 72V49h209v23H-5" id="aP"/><path d="M85-194c31 0 48 13 60 33l-1-100h32l1 261h-30c-2-10 0-23-3-31C134-8 116 4 85 4 32 4 16-35 15-94c0-66 23-100 70-100zm9 24c-40 0-46 34-46 75 0 40 6 74 45 74 42 0 51-32 51-76 0-42-9-74-50-73" id="aQ"/><g id="j"><use transform="matrix(0.05,0,0,0.05,0,0)" xlink:href="#aE"/><use transform="matrix(0.05,0,0,0.05,9,0)" xlink:href="#aA"/><use transform="matrix(0.05,0,0,0.05,19,0)" xlink:href="#aF"/><use transform="matrix(0.05,0,0,0.05,24,0)" xlink:href="#aJ"/><use transform="matrix(0.05,0,0,0.05,34,0)" xlink:href="#aK"/><use transform="matrix(0.05,0,0,0.05,44,0)" xlink:href="#aG"/><use transform="matrix(0.05,0,0,0.05,54,0)" xlink:href="#aL"/><use transform="matrix(0.05,0,0,0.05,59.95,0)" xlink:href="#aM"/><use transform="matrix(0.05,0,0,0.05,68.95,0)" xlink:href="#aP"/><use transform="matrix(0.05,0,0,0.05,78.95,0)" xlink:href="#aD"/><use transform="matrix(0.05,0,0,0.05,82.9,0)" xlink:href="#aQ"/></g><g id="k"><use transform="matrix(0.05,0,0,0.05,0,0)" xlink:href="#aD"/><use transform="matrix(0.05,0,0,0.05,3.95,0)" xlink:href="#aH"/><use transform="matrix(0.05,0,0,0.05,13.949999999999998,0)" xlink:href="#aF"/><use transform="matrix(0.05,0,0,0.05,18.95,0)" xlink:href="#aJ"/><use transform="matrix(0.05,0,0,0.05,28.950000000000003,0)" xlink:href="#aK"/><use transform="matrix(0.05,0,0,0.05,38.95,0)" xlink:href="#aJ"/><use transform="matrix(0.05,0,0,0.05,48.95,0)" xlink:href="#aL"/></g><path d="M210-169c-67 3-38 105-44 169h-31v-121c0-29-5-50-35-48C34-165 62-65 56 0H25l-1-190h30c1 10-1 24 2 32 10-44 99-50 107 0 11-21 27-35 58-36 85-2 47 119 55 194h-31v-121c0-29-5-49-35-48" id="aR"/><g id="l"><use transform="matrix(0.05,0,0,0.05,0,0)" xlink:href="#aH"/><use transform="matrix(0.05,0,0,0.05,10,0)" xlink:href="#aA"/><use transform="matrix(0.05,0,0,0.05,20,0)" xlink:href="#aR"/><use transform="matrix(0.05,0,0,0.05,34.95,0)" xlink:href="#aJ"/></g><path d="M106-169C34-169 62-67 57 0H25v-261h32l-1 103c12-21 28-36 61-36 89 0 53 116 60 194h-32v-121c2-32-8-49-39-48" id="aS"/><g id="m"><use transform="matrix(0.05,0,0,0.05,0,0)" xlink:href="#aE"/><use transform="matrix(0.05,0,0,0.05,9,0)" xlink:href="#aS"/><use transform="matrix(0.05,0,0,0.05,19,0)" xlink:href="#aA"/><use transform="matrix(0.05,0,0,0.05,29,0)" xlink:href="#aL"/><use transform="matrix(0.05,0,0,0.05,34.95,0)" xlink:href="#aA"/><use transform="matrix(0.05,0,0,0.05,44.95,0)" xlink:href="#aE"/><use transform="matrix(0.05,0,0,0.05,53.95,0)" xlink:href="#aF"/><use transform="matrix(0.05,0,0,0.05,58.95,0)" xlink:href="#aJ"/><use transform="matrix(0.05,0,0,0.05,68.95,0)" xlink:href="#aL"/></g><path d="M108 0H70L1-190h34L89-25l56-165h34" id="aT"/><path d="M87 75C49 33 22-17 22-94c0-76 28-126 65-167h31c-38 41-64 92-64 168S80 34 118 75H87" id="aU"/><path d="M27 0v-27h64v-190l-56 39v-29l58-41h29v221h61V0H27" id="aV"/><path d="M101-251c68 0 85 55 85 127S166 4 100 4C33 4 14-52 14-124c0-73 17-127 87-127zm-1 229c47 0 54-49 54-102s-4-102-53-102c-51 0-55 48-55 102 0 53 5 102 54 102" id="aW"/><path d="M33-261c38 41 65 92 65 168S71 34 33 75H2C39 34 66-17 66-93S39-220 2-261h31" id="aX"/><g id="n"><use transform="matrix(0.05,0,0,0.05,0,0)" xlink:href="#aT"/><use transform="matrix(0.05,0,0,0.05,9,0)" xlink:href="#aA"/><use transform="matrix(0.05,0,0,0.05,19,0)" xlink:href="#aL"/><use transform="matrix(0.05,0,0,0.05,24.95,0)" xlink:href="#aM"/><use transform="matrix(0.05,0,0,0.05,33.95,0)" xlink:href="#aD"/><use transform="matrix(0.05,0,0,0.05,37.900000000000006,0)" xlink:href="#aH"/><use transform="matrix(0.05,0,0,0.05,47.900000000000006,0)" xlink:href="#aK"/><use transform="matrix(0.05,0,0,0.05,57.900000000000006,0)" xlink:href="#aU"/><use transform="matrix(0.05,0,0,0.05,63.85,0)" xlink:href="#aV"/><use transform="matrix(0.05,0,0,0.05,73.85000000000001,0)" xlink:href="#aW"/><use transform="matrix(0.05,0,0,0.05,83.85000000000001,0)" xlink:href="#aW"/><use transform="matrix(0.05,0,0,0.05,93.85000000000001,0)" xlink:href="#aX"/></g><g id="o"><use transform="matrix(0.05,0,0,0.05,0,0)" xlink:href="#aA"/><use transform="matrix(0.05,0,0,0.05,10,0)" xlink:href="#aB"/><use transform="matrix(0.05,0,0,0.05,20,0)" xlink:href="#aB"/><use transform="matrix(0.05,0,0,0.05,30,0)" xlink:href="#aC"/><use transform="matrix(0.05,0,0,0.05,33.95,0)" xlink:href="#aD"/><use transform="matrix(0.05,0,0,0.05,37.900000000000006,0)" xlink:href="#aE"/><use transform="matrix(0.05,0,0,0.05,46.900000000000006,0)" xlink:href="#aA"/><use transform="matrix(0.05,0,0,0.05,56.900000000000006,0)" xlink:href="#aF"/><use transform="matrix(0.05,0,0,0.05,61.900000000000006,0)" xlink:href="#aD"/><use transform="matrix(0.05,0,0,0.05,65.85000000000001,0)" xlink:href="#aG"/><use transform="matrix(0.05,0,0,0.05,75.85000000000001,0)" xlink:href="#aH"/><use transform="matrix(0.05,0,0,0.05,85.85000000000001,0)" xlink:href="#aI"/><use transform="matrix(0.05,0,0,0.05,90.85000000000001,0)" xlink:href="#aL"/><use transform="matrix(0.05,0,0,0.05,96.80000000000001,0)" xlink:href="#aG"/><use transform="matrix(0.05,0,0,0.05,106.80000000000001,0)" xlink:href="#aC"/><use transform="matrix(0.05,0,0,0.05,110.75,0)" xlink:href="#aJ"/></g><g id="p"><use transform="matrix(0.05,0,0,0.05,0,0)" xlink:href="#aL"/><use transform="matrix(0.05,0,0,0.05,5.95,0)" xlink:href="#aG"/><use transform="matrix(0.05,0,0,0.05,15.949999999999998,0)" xlink:href="#aC"/><use transform="matrix(0.05,0,0,0.05,19.9,0)" xlink:href="#aJ"/><use transform="matrix(0.05,0,0,0.05,29.899999999999995,0)" xlink:href="#aP"/><use transform="matrix(0.05,0,0,0.05,39.9,0)" xlink:href="#aD"/><use transform="matrix(0.05,0,0,0.05,43.85,0)" xlink:href="#aQ"/></g><path d="M54-142c48-35 137-8 131 61C196 18 31 33 14-55l32-4c7 23 22 37 52 37 35-1 51-22 54-58 4-55-73-65-99-34H22l8-134h141v27H59" id="aY"/><g id="q"><use transform="matrix(0.05,0,0,0.05,0,0)" xlink:href="#aT"/><use transform="matrix(0.05,0,0,0.05,9,0)" xlink:href="#aA"/><use transform="matrix(0.05,0,0,0.05,19,0)" xlink:href="#aL"/><use transform="matrix(0.05,0,0,0.05,24.95,0)" xlink:href="#aM"/><use transform="matrix(0.05,0,0,0.05,33.95,0)" xlink:href="#aD"/><use transform="matrix(0.05,0,0,0.05,37.900000000000006,0)" xlink:href="#aH"/><use transform="matrix(0.05,0,0,0.05,47.900000000000006,0)" xlink:href="#aK"/><use transform="matrix(0.05,0,0,0.05,57.900000000000006,0)" xlink:href="#aU"/><use transform="matrix(0.05,0,0,0.05,63.85,0)" xlink:href="#aY"/><use transform="matrix(0.05,0,0,0.05,73.85000000000001,0)" xlink:href="#aW"/><use transform="matrix(0.05,0,0,0.05,83.85000000000001,0)" xlink:href="#aX"/></g><path d="M135-143c-3-34-86-38-87 0 15 53 115 12 119 90S17 21 10-45l28-5c4 36 97 45 98 0-10-56-113-15-118-90-4-57 82-63 122-42 12 7 21 19 24 35" id="aZ"/><g id="r"><use transform="matrix(0.05,0,0,0.05,0,0)" xlink:href="#aA"/><use transform="matrix(0.05,0,0,0.05,10,0)" xlink:href="#aB"/><use transform="matrix(0.05,0,0,0.05,20,0)" xlink:href="#aB"/><use transform="matrix(0.05,0,0,0.05,30,0)" xlink:href="#aC"/><use transform="matrix(0.05,0,0,0.05,33.95,0)" xlink:href="#aD"/><use transform="matrix(0.05,0,0,0.05,37.900000000000006,0)" xlink:href="#aE"/><use transform="matrix(0.05,0,0,0.05,46.900000000000006,0)" xlink:href="#aA"/><use transform="matrix(0.05,0,0,0.05,56.900000000000006,0)" xlink:href="#aF"/><use transform="matrix(0.05,0,0,0.05,61.900000000000006,0)" xlink:href="#aD"/><use transform="matrix(0.05,0,0,0.05,65.85000000000001,0)" xlink:href="#aG"/><use transform="matrix(0.05,0,0,0.05,75.85000000000001,0)" xlink:href="#aH"/><use transform="matrix(0.05,0,0,0.05,85.85000000000001,0)" xlink:href="#aI"/><use transform="matrix(0.05,0,0,0.05,90.85000000000001,0)" xlink:href="#aZ"/><use transform="matrix(0.05,0,0,0.05,99.85000000000001,0)" xlink:href="#aF"/><use transform="matrix(0.05,0,0,0.05,104.85000000000001,0)" xlink:href="#aA"/><use transform="matrix(0.05,0,0,0.05,114.85000000000001,0)" xlink:href="#aF"/><use transform="matrix(0.05,0,0,0.05,119.85000000000001,0)" xlink:href="#aJ"/></g><g id="s"><use transform="matrix(0.05,0,0,0.05,0,0)" xlink:href="#aZ"/><use transform="matrix(0.05,0,0,0.05,9,0)" xlink:href="#aF"/><use transform="matrix(0.05,0,0,0.05,14,0)" xlink:href="#aA"/><use transform="matrix(0.05,0,0,0.05,24,0)" xlink:href="#aF"/><use transform="matrix(0.05,0,0,0.05,29,0)" xlink:href="#aJ"/><use transform="matrix(0.05,0,0,0.05,39,0)" xlink:href="#aP"/><use transform="matrix(0.05,0,0,0.05,49,0)" xlink:href="#aD"/><use transform="matrix(0.05,0,0,0.05,52.95,0)" xlink:href="#aQ"/></g><path d="M84 4C-5 8 30-112 23-190h32v120c0 31 7 50 39 49 72-2 45-101 50-169h31l1 190h-30c-1-10 1-25-2-33-11 22-28 36-60 37" id="ba"/><g id="t"><use transform="matrix(0.05,0,0,0.05,0,0)" xlink:href="#aA"/><use transform="matrix(0.05,0,0,0.05,10,0)" xlink:href="#aB"/><use transform="matrix(0.05,0,0,0.05,20,0)" xlink:href="#aB"/><use transform="matrix(0.05,0,0,0.05,30,0)" xlink:href="#aC"/><use transform="matrix(0.05,0,0,0.05,33.95,0)" xlink:href="#aD"/><use transform="matrix(0.05,0,0,0.05,37.900000000000006,0)" xlink:href="#aE"/><use transform="matrix(0.05,0,0,0.05,46.900000000000006,0)" xlink:href="#aA"/><use transform="matrix(0.05,0,0,0.05,56.900000000000006,0)" xlink:href="#aF"/><use transform="matrix(0.05,0,0,0.05,61.900000000000006,0)" xlink:href="#aD"/><use transform="matrix(0.05,0,0,0.05,65.85000000000001,0)" xlink:href="#aG"/><use transform="matrix(0.05,0,0,0.05,75.85000000000001,0)" xlink:href="#aH"/><use transform="matrix(0.05,0,0,0.05,85.85000000000001,0)" xlink:href="#aI"/><use transform="matrix(0.05,0,0,0.05,90.85000000000001,0)" xlink:href="#ba"/><use transform="matrix(0.05,0,0,0.05,100.85000000000001,0)" xlink:href="#aZ"/><use transform="matrix(0.05,0,0,0.05,109.85000000000001,0)" xlink:href="#aJ"/><use transform="matrix(0.05,0,0,0.05,119.85000000000001,0)" xlink:href="#aL"/></g><g id="u"><use transform="matrix(0.05,0,0,0.05,0,0)" xlink:href="#ba"/><use transform="matrix(0.05,0,0,0.05,10,0)" xlink:href="#aZ"/><use transform="matrix(0.05,0,0,0.05,19,0)" xlink:href="#aJ"/><use transform="matrix(0.05,0,0,0.05,29,0)" xlink:href="#aL"/><use transform="matrix(0.05,0,0,0.05,34.95,0)" xlink:href="#aP"/><use transform="matrix(0.05,0,0,0.05,44.95,0)" xlink:href="#aD"/><use transform="matrix(0.05,0,0,0.05,48.900000000000006,0)" xlink:href="#aQ"/></g><path d="M63-220v92h138v28H63V0H30v-248h175v28H63" id="bb"/><g id="v"><use transform="matrix(0.05,0,0,0.05,0,0)" xlink:href="#bb"/><use transform="matrix(0.05,0,0,0.05,10.950000000000001,0)" xlink:href="#aO"/></g><g id="w"><use transform="matrix(0.05,0,0,0.05,0,0)" xlink:href="#aA"/><use transform="matrix(0.05,0,0,0.05,10,0)" xlink:href="#aB"/><use transform="matrix(0.05,0,0,0.05,20,0)" xlink:href="#aB"/><use transform="matrix(0.05,0,0,0.05,30,0)" xlink:href="#aC"/><use transform="matrix(0.05,0,0,0.05,33.95,0)" xlink:href="#aD"/><use transform="matrix(0.05,0,0,0.05,37.900000000000006,0)" xlink:href="#aE"/><use transform="matrix(0.05,0,0,0.05,46.900000000000006,0)" xlink:href="#aA"/><use transform="matrix(0.05,0,0,0.05,56.900000000000006,0)" xlink:href="#aF"/><use transform="matrix(0.05,0,0,0.05,61.900000000000006,0)" xlink:href="#aD"/><use transform="matrix(0.05,0,0,0.05,65.85000000000001,0)" xlink:href="#aG"/><use transform="matrix(0.05,0,0,0.05,75.85000000000001,0)" xlink:href="#aH"/><use transform="matrix(0.05,0,0,0.05,85.85000000000001,0)" xlink:href="#aI"/><use transform="matrix(0.05,0,0,0.05,90.85000000000001,0)" xlink:href="#aL"/><use transform="matrix(0.05,0,0,0.05,96.80000000000001,0)" xlink:href="#ba"/><use transform="matrix(0.05,0,0,0.05,106.80000000000001,0)" xlink:href="#aC"/><use transform="matrix(0.05,0,0,0.05,110.75,0)" xlink:href="#aJ"/></g><g id="x"><use transform="matrix(0.05,0,0,0.05,0,0)" xlink:href="#aL"/><use transform="matrix(0.05,0,0,0.05,5.95,0)" xlink:href="#ba"/><use transform="matrix(0.05,0,0,0.05,15.949999999999998,0)" xlink:href="#aC"/><use transform="matrix(0.05,0,0,0.05,19.9,0)" xlink:href="#aJ"/><use transform="matrix(0.05,0,0,0.05,29.899999999999995,0)" xlink:href="#aP"/><use transform="matrix(0.05,0,0,0.05,39.9,0)" xlink:href="#aD"/><use transform="matrix(0.05,0,0,0.05,43.85,0)" xlink:href="#aQ"/></g><g id="y"><use transform="matrix(0.05,0,0,0.05,0,0)" xlink:href="#aA"/><use transform="matrix(0.05,0,0,0.05,10,0)" xlink:href="#aB"/><use transform="matrix(0.05,0,0,0.05,20,0)" xlink:href="#aB"/><use transform="matrix(0.05,0,0,0.05,30,0)" xlink:href="#aC"/><use transform="matrix(0.05,0,0,0.05,33.95,0)" xlink:href="#aD"/><use transform="matrix(0.05,0,0,0.05,37.900000000000006,0)" xlink:href="#aE"/><use transform="matrix(0.05,0,0,0.05,46.900000000000006,0)" xlink:href="#aA"/><use transform="matrix(0.05,0,0,0.05,56.900000000000006,0)" xlink:href="#aF"/><use transform="matrix(0.05,0,0,0.05,61.900000000000006,0)" xlink:href="#aD"/><use transform="matrix(0.05,0,0,0.05,65.85000000000001,0)" xlink:href="#aG"/><use transform="matrix(0.05,0,0,0.05,75.85000000000001,0)" xlink:href="#aH"/><use transform="matrix(0.05,0,0,0.05,85.85000000000001,0)" xlink:href="#aI"/><use transform="matrix(0.05,0,0,0.05,90.85000000000001,0)" xlink:href="#aL"/><use transform="matrix(0.05,0,0,0.05,96.80000000000001,0)" xlink:href="#aG"/><use transform="matrix(0.05,0,0,0.05,106.80000000000001,0)" xlink:href="#aC"/><use transform="matrix(0.05,0,0,0.05,110.75,0)" xlink:href="#aJ"/><use transform="matrix(0.05,0,0,0.05,120.75,0)" xlink:href="#aP"/><use transform="matrix(0.05,0,0,0.05,130.75,0)" xlink:href="#aL"/><use transform="matrix(0.05,0,0,0.05,136.7,0)" xlink:href="#ba"/><use transform="matrix(0.05,0,0,0.05,146.7,0)" xlink:href="#aC"/><use transform="matrix(0.05,0,0,0.05,150.64999999999998,0)" xlink:href="#aJ"/></g><g id="z"><use transform="matrix(0.05,0,0,0.05,0,0)" xlink:href="#aL"/><use transform="matrix(0.05,0,0,0.05,5.95,0)" xlink:href="#aG"/><use transform="matrix(0.05,0,0,0.05,15.949999999999998,0)" xlink:href="#aC"/><use transform="matrix(0.05,0,0,0.05,19.9,0)" xlink:href="#aJ"/><use transform="matrix(0.05,0,0,0.05,29.899999999999995,0)" xlink:href="#aP"/><use transform="matrix(0.05,0,0,0.05,39.9,0)" xlink:href="#aL"/><use transform="matrix(0.05,0,0,0.05,45.85,0)" xlink:href="#ba"/><use transform="matrix(0.05,0,0,0.05,55.85,0)" xlink:href="#aC"/><use transform="matrix(0.05,0,0,0.05,59.800000000000004,0)" xlink:href="#aJ"/><use transform="matrix(0.05,0,0,0.05,69.80000000000001,0)" xlink:href="#aP"/><use transform="matrix(0.05,0,0,0.05,79.80000000000001,0)" xlink:href="#aD"/><use transform="matrix(0.05,0,0,0.05,83.75000000000001,0)" xlink:href="#aQ"/></g><g id="A"><use transform="matrix(0.05,0,0,0.05,0,0)" xlink:href="#aA"/><use transform="matrix(0.05,0,0,0.05,10,0)" xlink:href="#aB"/><use transform="matrix(0.05,0,0,0.05,20,0)" xlink:href="#aB"/><use transform="matrix(0.05,0,0,0.05,30,0)" xlink:href="#aC"/><use transform="matrix(0.05,0,0,0.05,33.95,0)" xlink:href="#aD"/><use transform="matrix(0.05,0,0,0.05,37.900000000000006,0)" xlink:href="#aE"/><use transform="matrix(0.05,0,0,0.05,46.900000000000006,0)" xlink:href="#aA"/><use transform="matrix(0.05,0,0,0.05,56.900000000000006,0)" xlink:href="#aF"/><use transform="matrix(0.05,0,0,0.05,61.900000000000006,0)" xlink:href="#aD"/><use transform="matrix(0.05,0,0,0.05,65.85000000000001,0)" xlink:href="#aG"/><use transform="matrix(0.05,0,0,0.05,75.85000000000001,0)" xlink:href="#aH"/><use transform="matrix(0.05,0,0,0.05,85.85000000000001,0)" xlink:href="#aI"/><use transform="matrix(0.05,0,0,0.05,90.85000000000001,0)" xlink:href="#aD"/><use transform="matrix(0.05,0,0,0.05,94.80000000000001,0)" xlink:href="#aF"/><use transform="matrix(0.05,0,0,0.05,99.80000000000001,0)" xlink:href="#aJ"/><use transform="matrix(0.05,0,0,0.05,109.80000000000001,0)" xlink:href="#aR"/></g><g id="B"><use transform="matrix(0.05,0,0,0.05,0,0)" xlink:href="#aD"/><use transform="matrix(0.05,0,0,0.05,3.95,0)" xlink:href="#aF"/><use transform="matrix(0.05,0,0,0.05,8.95,0)" xlink:href="#aJ"/><use transform="matrix(0.05,0,0,0.05,18.95,0)" xlink:href="#aR"/><use transform="matrix(0.05,0,0,0.05,33.9,0)" xlink:href="#aP"/><use transform="matrix(0.05,0,0,0.05,43.9,0)" xlink:href="#aD"/><use transform="matrix(0.05,0,0,0.05,47.85,0)" xlink:href="#aQ"/></g><g id="C"><use transform="matrix(0.05,0,0,0.05,0,0)" xlink:href="#aQ"/><use transform="matrix(0.05,0,0,0.05,10,0)" xlink:href="#aJ"/><use transform="matrix(0.05,0,0,0.05,20,0)" xlink:href="#aZ"/><use transform="matrix(0.05,0,0,0.05,29,0)" xlink:href="#aE"/><use transform="matrix(0.05,0,0,0.05,38,0)" xlink:href="#aL"/><use transform="matrix(0.05,0,0,0.05,43.95,0)" xlink:href="#aD"/><use transform="matrix(0.05,0,0,0.05,47.900000000000006,0)" xlink:href="#aB"/><use transform="matrix(0.05,0,0,0.05,57.900000000000006,0)" xlink:href="#aF"/><use transform="matrix(0.05,0,0,0.05,62.900000000000006,0)" xlink:href="#aD"/><use transform="matrix(0.05,0,0,0.05,66.85000000000001,0)" xlink:href="#aG"/><use transform="matrix(0.05,0,0,0.05,76.85000000000001,0)" xlink:href="#aH"/></g><path d="M68-38c1 34 0 65-14 84H32c9-13 17-26 17-46H33v-38h35" id="bc"/><path d="M205 0l-28-72H64L36 0H1l101-248h38L239 0h-34zm-38-99l-47-123c-12 45-31 82-46 123h93" id="bd"/><g id="D"><use transform="matrix(0.05,0,0,0.05,0,0)" xlink:href="#bb"/><use transform="matrix(0.05,0,0,0.05,10.950000000000001,0)" xlink:href="#aO"/><use transform="matrix(0.05,0,0,0.05,22.950000000000003,0)" xlink:href="#bc"/><use transform="matrix(0.05,0,0,0.05,27.950000000000003,0)" xlink:href="#bd"/><use transform="matrix(0.05,0,0,0.05,39.95,0)" xlink:href="#aO"/></g><g id="E"><use transform="matrix(0.05,0,0,0.05,0,0)" xlink:href="#aA"/><use transform="matrix(0.05,0,0,0.05,10,0)" xlink:href="#aB"/><use transform="matrix(0.05,0,0,0.05,20,0)" xlink:href="#aB"/><use transform="matrix(0.05,0,0,0.05,30,0)" xlink:href="#aC"/><use transform="matrix(0.05,0,0,0.05,33.95,0)" xlink:href="#aD"/><use transform="matrix(0.05,0,0,0.05,37.900000000000006,0)" xlink:href="#aE"/><use transform="matrix(0.05,0,0,0.05,46.900000000000006,0)" xlink:href="#aA"/><use transform="matrix(0.05,0,0,0.05,56.900000000000006,0)" xlink:href="#aF"/><use transform="matrix(0.05,0,0,0.05,61.900000000000006,0)" xlink:href="#aD"/><use transform="matrix(0.05,0,0,0.05,65.85000000000001,0)" xlink:href="#aG"/><use transform="matrix(0.05,0,0,0.05,75.85000000000001,0)" xlink:href="#aH"/><use transform="matrix(0.05,0,0,0.05,85.85000000000001,0)" xlink:href="#aI"/><use transform="matrix(0.05,0,0,0.05,90.85000000000001,0)" xlink:href="#aE"/><use transform="matrix(0.05,0,0,0.05,99.85000000000001,0)" xlink:href="#aG"/><use transform="matrix(0.05,0,0,0.05,109.85000000000001,0)" xlink:href="#aR"/><use transform="matrix(0.05,0,0,0.05,124.80000000000001,0)" xlink:href="#aR"/><use transform="matrix(0.05,0,0,0.05,139.75,0)" xlink:href="#aJ"/><use transform="matrix(0.05,0,0,0.05,149.75,0)" xlink:href="#aH"/><use transform="matrix(0.05,0,0,0.05,159.75,0)" xlink:href="#aF"/></g><g id="F"><use transform="matrix(0.05,0,0,0.05,0,0)" xlink:href="#aE"/><use transform="matrix(0.05,0,0,0.05,9,0)" xlink:href="#aG"/><use transform="matrix(0.05,0,0,0.05,19,0)" xlink:href="#aR"/><use transform="matrix(0.05,0,0,0.05,33.95,0)" xlink:href="#aR"/><use transform="matrix(0.05,0,0,0.05,48.900000000000006,0)" xlink:href="#aJ"/><use transform="matrix(0.05,0,0,0.05,58.900000000000006,0)" xlink:href="#aH"/><use transform="matrix(0.05,0,0,0.05,68.9,0)" xlink:href="#aF"/><use transform="matrix(0.05,0,0,0.05,73.9,0)" xlink:href="#aP"/><use transform="matrix(0.05,0,0,0.05,83.9,0)" xlink:href="#aD"/><use transform="matrix(0.05,0,0,0.05,87.85000000000001,0)" xlink:href="#aQ"/></g><g id="G"><use transform="matrix(0.05,0,0,0.05,0,0)" xlink:href="#aE"/><use transform="matrix(0.05,0,0,0.05,9,0)" xlink:href="#aG"/><use transform="matrix(0.05,0,0,0.05,19,0)" xlink:href="#aR"/><use transform="matrix(0.05,0,0,0.05,33.95,0)" xlink:href="#aR"/><use transform="matrix(0.05,0,0,0.05,48.900000000000006,0)" xlink:href="#aJ"/><use transform="matrix(0.05,0,0,0.05,58.900000000000006,0)" xlink:href="#aH"/><use transform="matrix(0.05,0,0,0.05,68.9,0)" xlink:href="#aF"/><use transform="matrix(0.05,0,0,0.05,73.9,0)" xlink:href="#aP"/><use transform="matrix(0.05,0,0,0.05,83.9,0)" xlink:href="#aF"/><use transform="matrix(0.05,0,0,0.05,88.9,0)" xlink:href="#aD"/><use transform="matrix(0.05,0,0,0.05,92.85000000000001,0)" xlink:href="#aR"/><use transform="matrix(0.05,0,0,0.05,107.80000000000001,0)" xlink:href="#aJ"/></g><g id="H"><use transform="matrix(0.05,0,0,0.05,0,0)" xlink:href="#aF"/><use transform="matrix(0.05,0,0,0.05,5,0)" xlink:href="#aD"/><use transform="matrix(0.05,0,0,0.05,8.95,0)" xlink:href="#aR"/><use transform="matrix(0.05,0,0,0.05,23.9,0)" xlink:href="#aJ"/><use transform="matrix(0.05,0,0,0.05,33.9,0)" xlink:href="#aZ"/><use transform="matrix(0.05,0,0,0.05,42.9,0)" xlink:href="#aF"/><use transform="matrix(0.05,0,0,0.05,47.9,0)" xlink:href="#aA"/><use transform="matrix(0.05,0,0,0.05,57.900000000000006,0)" xlink:href="#aR"/><use transform="matrix(0.05,0,0,0.05,72.85,0)" xlink:href="#aB"/></g><path d="M206 0h-36l-40-164L89 0H53L-1-190h32L70-26l43-164h34l41 164 42-164h31" id="be"/><g id="I"><use transform="matrix(0.05,0,0,0.05,0,0)" xlink:href="#be"/><use transform="matrix(0.05,0,0,0.05,12.950000000000001,0)" xlink:href="#aD"/><use transform="matrix(0.05,0,0,0.05,16.900000000000002,0)" xlink:href="#aF"/><use transform="matrix(0.05,0,0,0.05,21.900000000000002,0)" xlink:href="#aS"/><use transform="matrix(0.05,0,0,0.05,31.900000000000002,0)" xlink:href="#aG"/><use transform="matrix(0.05,0,0,0.05,41.900000000000006,0)" xlink:href="#ba"/><use transform="matrix(0.05,0,0,0.05,51.900000000000006,0)" xlink:href="#aF"/></g><g id="J"><use transform="matrix(0.05,0,0,0.05,0,0)" xlink:href="#aF"/><use transform="matrix(0.05,0,0,0.05,5,0)" xlink:href="#aD"/><use transform="matrix(0.05,0,0,0.05,8.95,0)" xlink:href="#aR"/><use transform="matrix(0.05,0,0,0.05,23.9,0)" xlink:href="#aJ"/></g><path d="M9 0v-24l116-142H16v-24h144v24L44-24h123V0H9" id="bf"/><g id="K"><use transform="matrix(0.05,0,0,0.05,0,0)" xlink:href="#bf"/><use transform="matrix(0.05,0,0,0.05,9,0)" xlink:href="#aG"/><use transform="matrix(0.05,0,0,0.05,19,0)" xlink:href="#aH"/><use transform="matrix(0.05,0,0,0.05,29,0)" xlink:href="#aJ"/></g><g id="L"><use transform="matrix(0.05,0,0,0.05,0,0)" xlink:href="#aE"/><use transform="matrix(0.05,0,0,0.05,9,0)" xlink:href="#aG"/><use transform="matrix(0.05,0,0,0.05,19,0)" xlink:href="#aH"/><use transform="matrix(0.05,0,0,0.05,29,0)" xlink:href="#aF"/><use transform="matrix(0.05,0,0,0.05,34,0)" xlink:href="#aJ"/><use transform="matrix(0.05,0,0,0.05,44,0)" xlink:href="#aH"/><use transform="matrix(0.05,0,0,0.05,54,0)" xlink:href="#aF"/></g><g id="M"><use transform="matrix(0.05,0,0,0.05,0,0)" xlink:href="#aT"/><use transform="matrix(0.05,0,0,0.05,9,0)" xlink:href="#aA"/><use transform="matrix(0.05,0,0,0.05,19,0)" xlink:href="#aL"/><use transform="matrix(0.05,0,0,0.05,24.95,0)" xlink:href="#aM"/><use transform="matrix(0.05,0,0,0.05,33.95,0)" xlink:href="#aD"/><use transform="matrix(0.05,0,0,0.05,37.900000000000006,0)" xlink:href="#aH"/><use transform="matrix(0.05,0,0,0.05,47.900000000000006,0)" xlink:href="#aK"/><use transform="matrix(0.05,0,0,0.05,57.900000000000006,0)" xlink:href="#aU"/><use transform="matrix(0.05,0,0,0.05,63.85,0)" xlink:href="#aY"/><use transform="matrix(0.05,0,0,0.05,73.85000000000001,0)" xlink:href="#aW"/><use transform="matrix(0.05,0,0,0.05,83.85000000000001,0)" xlink:href="#aW"/><use transform="matrix(0.05,0,0,0.05,93.85000000000001,0)" xlink:href="#aX"/></g><g id="N"><use transform="matrix(0.05,0,0,0.05,0,0)" xlink:href="#aA"/><use transform="matrix(0.05,0,0,0.05,10,0)" xlink:href="#aB"/><use transform="matrix(0.05,0,0,0.05,20,0)" xlink:href="#aB"/><use transform="matrix(0.05,0,0,0.05,30,0)" xlink:href="#aC"/><use transform="matrix(0.05,0,0,0.05,33.95,0)" xlink:href="#aD"/><use transform="matrix(0.05,0,0,0.05,37.900000000000006,0)" xlink:href="#aE"/><use transform="matrix(0.05,0,0,0.05,46.900000000000006,0)" xlink:href="#aA"/><use transform="matrix(0.05,0,0,0.05,56.900000000000006,0)" xlink:href="#aF"/><use transform="matrix(0.05,0,0,0.05,61.900000000000006,0)" xlink:href="#aD"/><use transform="matrix(0.05,0,0,0.05,65.85000000000001,0)" xlink:href="#aG"/><use transform="matrix(0.05,0,0,0.05,75.85000000000001,0)" xlink:href="#aH"/><use transform="matrix(0.05,0,0,0.05,85.85000000000001,0)" xlink:href="#aI"/><use transform="matrix(0.05,0,0,0.05,90.85000000000001,0)" xlink:href="#aA"/><use transform="matrix(0.05,0,0,0.05,100.85000000000001,0)" xlink:href="#aF"/><use transform="matrix(0.05,0,0,0.05,105.85000000000001,0)" xlink:href="#aF"/><use transform="matrix(0.05,0,0,0.05,110.85000000000001,0)" xlink:href="#aA"/><use transform="matrix(0.05,0,0,0.05,120.85000000000001,0)" xlink:href="#aE"/><use transform="matrix(0.05,0,0,0.05,129.85000000000002,0)" xlink:href="#aS"/><use transform="matrix(0.05,0,0,0.05,139.85000000000002,0)" xlink:href="#aR"/><use transform="matrix(0.05,0,0,0.05,154.8,0)" xlink:href="#aJ"/><use transform="matrix(0.05,0,0,0.05,164.8,0)" xlink:href="#aH"/><use transform="matrix(0.05,0,0,0.05,174.8,0)" xlink:href="#aF"/></g><g id="O"><use transform="matrix(0.05,0,0,0.05,0,0)" xlink:href="#aA"/><use transform="matrix(0.05,0,0,0.05,10,0)" xlink:href="#aF"/><use transform="matrix(0.05,0,0,0.05,15,0)" xlink:href="#aF"/><use transform="matrix(0.05,0,0,0.05,20,0)" xlink:href="#aA"/><use transform="matrix(0.05,0,0,0.05,30,0)" xlink:href="#aE"/><use transform="matrix(0.05,0,0,0.05,39,0)" xlink:href="#aS"/><use transform="matrix(0.05,0,0,0.05,49,0)" xlink:href="#aR"/><use transform="matrix(0.05,0,0,0.05,63.95,0)" xlink:href="#aJ"/><use transform="matrix(0.05,0,0,0.05,73.95,0)" xlink:href="#aH"/><use transform="matrix(0.05,0,0,0.05,83.95,0)" xlink:href="#aF"/><use transform="matrix(0.05,0,0,0.05,88.95,0)" xlink:href="#aP"/><use transform="matrix(0.05,0,0,0.05,98.95,0)" xlink:href="#aD"/><use transform="matrix(0.05,0,0,0.05,102.9,0)" xlink:href="#aQ"/></g><g id="P"><use transform="matrix(0.05,0,0,0.05,0,0)" xlink:href="#aB"/><use transform="matrix(0.05,0,0,0.05,10,0)" xlink:href="#aA"/><use transform="matrix(0.05,0,0,0.05,20,0)" xlink:href="#aF"/><use transform="matrix(0.05,0,0,0.05,25,0)" xlink:href="#aS"/></g><path d="M101-251c82-7 93 87 43 132L82-64C71-53 59-42 53-27h129V0H18c2-99 128-94 128-182 0-28-16-43-45-43s-46 15-49 41l-32-3c6-41 34-60 81-64" id="bg"/><g id="Q"><use transform="matrix(0.05,0,0,0.05,0,0)" xlink:href="#aT"/><use transform="matrix(0.05,0,0,0.05,9,0)" xlink:href="#aA"/><use transform="matrix(0.05,0,0,0.05,19,0)" xlink:href="#aL"/><use transform="matrix(0.05,0,0,0.05,24.95,0)" xlink:href="#aM"/><use transform="matrix(0.05,0,0,0.05,33.95,0)" xlink:href="#aD"/><use transform="matrix(0.05,0,0,0.05,37.900000000000006,0)" xlink:href="#aH"/><use transform="matrix(0.05,0,0,0.05,47.900000000000006,0)" xlink:href="#aK"/><use transform="matrix(0.05,0,0,0.05,57.900000000000006,0)" xlink:href="#aU"/><use transform="matrix(0.05,0,0,0.05,63.85,0)" xlink:href="#bg"/><use transform="matrix(0.05,0,0,0.05,73.85000000000001,0)" xlink:href="#aY"/><use transform="matrix(0.05,0,0,0.05,83.85000000000001,0)" xlink:href="#aW"/><use transform="matrix(0.05,0,0,0.05,93.85000000000001,0)" xlink:href="#aX"/></g></defs></g></svg>